HIERARCHY
ROOT Hips
{
	OFFSET 62.890800 8.863803 43.568401
	CHANNELS 6 Xposition Yposition Zposition Zrotation Xrotation Yrotation
	JOINT Chest
	{
		OFFSET -0.160400 1.630001 7.806301
		CHANNELS 6 Xposition Yposition Zposition Zrotation Xrotation Yrotation
		JOINT Chest2
		{
			OFFSET 0.000000 0.000000 3.197998
			CHANNELS 6 Xposition Yposition Zposition Zrotation Xrotation Yrotation
			JOINT Neck
			{
				OFFSET 0.000000 0.000001 7.440701
				CHANNELS 6 Xposition Yposition Zposition Zrotation Xrotation Yrotation
				JOINT Head
				{
					OFFSET 0.000000 0.000000 2.173901
					CHANNELS 6 Xposition Yposition Zposition Zrotation Xrotation Yrotation
					End Site
					{
						OFFSET 0.000000 0.000001 10.420303
					}
				}
			}
			JOINT LeftCollar
			{
				OFFSET 2.426399 -1.880099 4.759399
				CHANNELS 6 Xposition Yposition Zposition Zrotation Xrotation Yrotation
				JOINT LeftShoulder
				{
					OFFSET 4.420197 0.000000 0.000000
					CHANNELS 6 Xposition Yposition Zposition Zrotation Xrotation Yrotation
					JOINT LeftElbow
					{
						OFFSET 0.000000 -0.000001 -10.347099
						CHANNELS 6 Xposition Yposition Zposition Zrotation Xrotation Yrotation
						JOINT LeftWrist
						{
							OFFSET 0.000000 -0.000001 -12.496300
							CHANNELS 6 Xposition Yposition Zposition Zrotation Xrotation Yrotation
							End Site
							{
								OFFSET 0.000000 0.000000 -2.173901
							}
						}
					}
				}
			}
			JOINT RightCollar
			{
				OFFSET -2.781502 -1.903799 5.072601
				CHANNELS 6 Xposition Yposition Zposition Zrotation Xrotation Yrotation
				JOINT RightShoulder
				{
					OFFSET -4.012100 0.000000 0.000000
					CHANNELS 6 Xposition Yposition Zposition Zrotation Xrotation Yrotation
					JOINT RightElbow
					{
						OFFSET 0.000000 -0.000001 -10.346600
						CHANNELS 6 Xposition Yposition Zposition Zrotation Xrotation Yrotation
						JOINT RightWrist
						{
							OFFSET 0.000000 -0.000001 -12.562599
							CHANNELS 6 Xposition Yposition Zposition Zrotation Xrotation Yrotation
							End Site
							{
								OFFSET 0.000000 0.000000 -2.173901
							}
						}
					}
				}
			}
		}
	}
	JOINT LeftHip
	{
		OFFSET 2.047997 -0.047200 -2.693199
		CHANNELS 6 Xposition Yposition Zposition Zrotation Xrotation Yrotation
		JOINT LeftKnee
		{
			OFFSET 0.000000 -0.000001 -18.824400
			CHANNELS 6 Xposition Yposition Zposition Zrotation Xrotation Yrotation
			JOINT LeftAnkle
			{
				OFFSET 0.000000 -0.000002 -19.078199
				CHANNELS 6 Xposition Yposition Zposition Zrotation Xrotation Yrotation
				End Site
				{
					OFFSET 0.000000 -9.342100 0.000001
				}
			}
		}
	}
	JOINT RightHip
	{
		OFFSET -2.129898 -0.022300 -2.538300
		CHANNELS 6 Xposition Yposition Zposition Zrotation Xrotation Yrotation
		JOINT RightKnee
		{
			OFFSET 0.000000 -0.000001 -18.644600
			CHANNELS 6 Xposition Yposition Zposition Zrotation Xrotation Yrotation
			JOINT RightAnkle
			{
				OFFSET 0.000000 -0.000002 -18.801399
				CHANNELS 6 Xposition Yposition Zposition Zrotation Xrotation Yrotation
				End Site
				{
					OFFSET 0.000000 -8.914600 0.000001
				}
			}
		}
	}
}
MOTION
Frames: 5
Frame Time: 0.041667
74.752899 -0.362800 38.527901 123.006844 20.542166 2.163972 -0.160397 1.630012 7.806294 7.757883 10.118641 -10.910352 0.000006 0.000004 3.197993 -0.701682 -8.505049 0.190766 -0.000006 0.000015 7.440686 -16.682003 6.731158 12.493720 -0.000005 -0.000004 2.173895 1.912621 -1.803653 3.018741 2.426404 -1.880089 4.759378 -178.219894 173.287527 -179.495787 4.420191 0.000000 0.000005 0.284087 4.851878 -100.980631 -0.000002 0.000010 -10.347096 485.486349 -186.038179 -666.252005 0.000009 -0.000008 -12.496288 -46.864250 115.469020 168.732952 -2.781505 -1.903787 5.072579 -188.402026 -181.301347 169.732632 -4.012098 -0.000004 -0.000011 0.011695 -10.841805 472.617781 0.000001 -0.000007 -10.346594 -408.706881 -6.688555 -3.720840 0.000003 0.000004 -12.562603 1689.474721 544.342253 -855.175966 2.047998 -0.047194 -2.693202 399.309251 -30.335869 38.831039 0.000011 -0.000003 -18.824400 157.709970 139.202534 -161.854460 0.000002 -0.000007 -19.078199 -356.321379 -4.780649 -0.111308 -2.129897 -0.022294 -2.538306 -460.067937 -38.456489 -37.349482 -0.000004 -0.000010 -18.644604 -41.053713 -232.615097 111.140790 -0.000012 0.000003 -18.801399 172.477057 153.904871 164.176724
75.544800 0.005004 38.528706 125.728510 20.371748 1.678778 -0.160399 1.629998 7.806302 7.177371 10.303953 -10.659690 0.000002 -0.000002 3.198009 -0.725839 -8.519764 0.190066 -0.000005 0.000000 7.440702 -15.231079 6.950222 12.927012 -0.000002 -0.000004 2.173908 2.401438 -1.776398 3.218708 2.426399 -1.880103 4.759401 -178.068004 173.417916 -179.359429 4.420197 0.000008 -0.000010 0.147922 4.959268 -100.951637 -0.000007 0.000011 -10.347098 485.473454 -185.815064 -666.467784 -0.000004 -0.000001 -12.496300 -47.027802 115.517432 168.745533 -2.781504 -1.903800 5.072601 -188.205221 -181.378419 170.034773 -4.012096 0.000002 -0.000006 -0.110494 -11.009403 472.376265 -0.000004 -0.000014 -10.346598 -408.338352 -6.731317 -3.768830 -0.000000 0.000010 -12.562600 1689.642143 544.054620 -855.293992 2.048006 -0.047201 -2.693200 397.184598 -29.595438 37.968612 0.000001 0.000000 -18.824398 154.978112 138.418100 -160.347256 -0.000004 0.000002 -19.078197 -355.282453 -5.396417 0.582189 -2.129894 -0.022310 -2.538295 -461.119513 -38.356857 -40.341792 -0.000001 -0.000003 -18.644600 -37.184947 -230.150655 109.325722 -0.000012 -0.000004 -18.801392 170.792186 155.208850 163.576651
76.315102 0.392797 38.534405 128.451065 20.239855 1.216438 -0.160409 1.629998 7.806306 6.562206 10.516143 -10.426775 0.000010 0.000000 3.198005 -0.725707 -8.548578 0.190595 -0.000004 0.000004 7.440701 -13.621064 7.158731 13.173571 -0.000008 -0.000011 2.173925 2.804774 -1.759264 3.529255 2.426399 -1.880097 4.759401 -177.964622 173.509440 -179.169877 4.420208 0.000001 -0.000008 0.082555 5.053681 -100.993650 -0.000014 0.000009 -10.347109 485.460449 -185.563618 -666.673509 0.000004 0.000002 -12.496296 -47.469333 115.620677 169.030721 -2.781498 -1.903798 5.072606 -188.010847 -181.509709 170.223368 -4.012099 -0.000007 -0.000004 -0.249799 -11.188165 472.221958 -0.000002 0.000009 -10.346593 -408.007197 -6.747592 -3.787491 -0.000004 -0.000005 -12.562609 1689.564224 543.970800 -855.324755 2.047990 -0.047197 -2.693199 394.968557 -28.823043 37.048807 0.000003 0.000001 -18.824400 152.355142 137.841222 -158.839519 -0.000000 0.000000 -19.078199 -354.242789 -6.113331 1.483529 -2.129904 -0.022299 -2.538296 -461.462771 -38.434670 -43.047701 0.000005 -0.000004 -18.644604 -35.743066 -228.691181 109.114519 0.000000 -0.000003 -18.801409 169.870206 156.809477 164.025927
77.068298 0.803799 38.546108 131.158538 20.142320 0.814400 -0.160407 1.629997 7.806305 5.968567 10.714461 -10.261307 0.000010 -0.000003 3.198009 -0.724526 -8.567579 0.191210 -0.000006 0.000001 7.440700 -11.967396 7.292101 13.346157 -0.000009 -0.000000 2.173934 3.151605 -1.704683 3.839137 2.426396 -1.880099 4.759397 -177.958448 173.546159 -178.984028 4.420185 -0.000013 -0.000013 0.102497 5.096622 -101.023641 0.000001 -0.000001 -10.347095 485.370946 -185.224417 -666.861312 -0.000003 -0.000006 -12.496296 -48.246383 115.589477 169.647337 -2.781508 -1.903802 5.072600 -187.847305 -181.618733 170.410870 -4.012104 -0.000009 -0.000008 -0.426024 -11.330413 472.063935 -0.000004 -0.000016 -10.346597 -407.550038 -6.761075 -3.795702 -0.000001 0.000003 -12.562580 1689.286208 543.937797 -855.424257 2.047998 -0.047203 -2.693194 392.624108 -28.019490 35.956001 -0.000017 -0.000002 -18.824402 149.897463 137.568315 -157.341563 -0.000007 0.000002 -19.078199 -353.213862 -6.882283 2.346132 -2.129904 -0.022309 -2.538296 -461.351903 -38.682349 -45.518785 -0.000003 0.000002 -18.644596 -36.635376 -228.550916 110.488473 0.000004 0.000002 -18.801405 169.568735 158.374506 166.089273
77.809097 1.242496 38.564705 133.822886 20.058507 0.485066 -0.160411 1.630001 7.806304 5.393906 10.909175 -10.161794 0.000005 0.000006 3.198000 -0.700079 -8.581165 0.192201 -0.000011 0.000004 7.440689 -10.281602 7.570163 13.372870 -0.000003 0.000006 2.173897 3.398576 -1.786079 4.239734 2.426401 -1.880099 4.759386 -177.987790 173.593738 -178.821142 4.420187 -0.000001 0.000015 0.138784 5.131738 -101.036475 0.000002 -0.000006 -10.347104 485.228223 -184.895325 -667.026712 -0.000004 0.000005 -12.496300 -49.063564 115.545067 170.318567 -2.781506 -1.903797 5.072591 -187.727312 -181.679070 170.646580 -4.012090 -0.000003 0.000011 -0.607987 -11.405168 471.848975 -0.000003 0.000002 -10.346603 -407.034305 -6.766872 -3.791750 -0.000006 -0.000003 -12.562590 1688.608763 543.769938 -855.662057 2.047990 -0.047191 -2.693193 390.193326 -27.171199 34.800425 0.000007 0.000004 -18.824396 147.874169 137.477897 -156.142564 -0.000014 0.000006 -19.078197 -352.301922 -7.637651 3.134631 -2.129908 -0.022301 -2.538304 -461.070335 -38.977823 -47.809938 0.000005 -0.000001 -18.644602 -39.879948 -229.711447 113.505279 -0.000014 -0.000003 -18.801401 170.164929 159.910588 169.398336
